<?xml version="1.0" encoding="UTF-8"?>
<svg xmlns="http://www.w3.org/2000/svg" xmlns:xlink="http://www.w3.org/1999/xlink" version="1.1" viewBox="0 0 612 792">
  <defs>
    <style>
      .cls-1 {
        fill: #009fda;
      }

      .cls-2 {
        stroke-dasharray: 3 3;
      }

      .cls-2, .cls-3, .cls-4, .cls-5, .cls-6 {
        stroke-width: .5px;
      }

      .cls-2, .cls-3, .cls-4, .cls-6 {
        stroke: #231f20;
      }

      .cls-2, .cls-4, .cls-5, .cls-6 {
        fill: none;
      }

      .cls-7 {
        fill: url(#linear-gradient-5);
      }

      .cls-8 {
        fill: url(#linear-gradient-6);
      }

      .cls-9 {
        fill: url(#linear-gradient-4);
      }

      .cls-10 {
        fill: url(#linear-gradient-3);
      }

      .cls-11 {
        fill: url(#linear-gradient-2);
      }

      .cls-12 {
        fill: #b5d5e5;
      }

      .cls-13, .cls-3 {
        fill: #231f20;
      }

      .cls-14 {
        fill: #d5e7f0;
      }

      .cls-15 {
        fill: url(#linear-gradient);
      }

      .cls-16 {
        fill: #dac294;
      }

      .cls-17 {
        fill: #fff;
      }

      .cls-4, .cls-5 {
        stroke-linecap: round;
        stroke-linejoin: round;
      }

      .cls-18 {
        fill: #f2eadc;
      }

      .cls-5 {
        stroke: #000;
      }

      .cls-19 {
        fill: #034ea2;
      }

      .cls-20 {
        fill: #76b4cf;
      }
    </style>
    <linearGradient id="linear-gradient" x1="344.95" y1="466.32" x2="347.75" y2="469.12" gradientUnits="userSpaceOnUse">
      <stop offset="0" stop-color="#d5e7f0"/>
      <stop offset="1" stop-color="#76b4cf"/>
    </linearGradient>
    <linearGradient id="linear-gradient-2" x1="289.87" y1="491.52" x2="292.67" y2="494.32" xlink:href="#linear-gradient"/>
    <linearGradient id="linear-gradient-3" x1="226.4" y1="398.55" x2="229.2" y2="401.35" xlink:href="#linear-gradient"/>
    <linearGradient id="linear-gradient-4" x1="170.77" y1="423.75" x2="173.56" y2="426.55" xlink:href="#linear-gradient"/>
    <linearGradient id="linear-gradient-5" x1="458.35" y1="466.32" x2="461.15" y2="469.12" xlink:href="#linear-gradient"/>
    <linearGradient id="linear-gradient-6" x1="403.27" y1="491.52" x2="406.07" y2="494.32" xlink:href="#linear-gradient"/>
  </defs>
  <!-- Generator: Adobe Illustrator 28.7.2, SVG Export Plug-In . SVG Version: 1.2.0 Build 154)  -->
  <g>
    <g id="background">
      <rect class="cls-17" x="128.58" y="390" width="360" height="168"/>
    </g>
    <g id="boxes">
      <g>
        <line class="cls-6" x1="201.51" y1="442.59" x2="201.51" y2="427.32"/>
        <polyline class="cls-4" points="203.68 434.57 201.51 442.59 199.18 434.57"/>
      </g>
      <g>
        <path class="cls-3" d="M197.26,521.32c0,2.34,1.91,4.25,4.25,4.25s4.25-1.91,4.25-4.25-1.91-4.25-4.25-4.25-4.25,1.91-4.25,4.25Z"/>
        <path class="cls-6" d="M208.26,521.32c0,3.73-3.02,6.75-6.75,6.75s-6.75-3.02-6.75-6.75,3.02-6.75,6.75-6.75,6.75,3.02,6.75,6.75Z"/>
      </g>
      <g>
        <polygon class="cls-18" points="215.11 500.79 279.59 500.79 285.95 507.16 285.95 541.23 215.11 541.23 215.11 500.79"/>
        <polygon class="cls-16" points="285.95 507.16 279.59 507.16 279.59 500.79 285.95 507.16"/>
      </g>
      <g>
        <polygon class="cls-18" points="297.96 530.6 459.41 530.6 465.78 536.97 465.78 551.29 297.96 551.29 297.96 530.6"/>
        <polygon class="cls-16" points="465.78 536.97 459.41 536.97 459.41 530.6 465.78 536.97"/>
      </g>
      <line class="cls-2" x1="205.61" y1="484.94" x2="227.7" y2="502.23"/>
      <line class="cls-2" x1="318.85" y1="495.86" x2="318.85" y2="530.6"/>
      <line class="cls-2" x1="263.12" y1="412.59" x2="237.94" y2="412.59"/>
      <line class="cls-2" x1="432.81" y1="495.86" x2="432.81" y2="506"/>
      <rect class="cls-5" x="196.01" y="444.87" width="11" height="11" transform="translate(-259.45 274.43) rotate(-45)"/>
      <rect class="cls-5" x="196.01" y="474.86" width="11" height="11" transform="translate(-280.66 283.21) rotate(-45)"/>
    </g>
    <g id="arrows">
      <g>
        <line class="cls-6" x1="201.51" y1="472.58" x2="201.51" y2="458.15"/>
        <polyline class="cls-4" points="203.68 464.56 201.51 472.58 199.18 464.56"/>
      </g>
      <g>
        <line class="cls-6" x1="201.51" y1="514.57" x2="201.51" y2="488.14"/>
        <polyline class="cls-4" points="203.68 506.55 201.51 514.57 199.18 506.55"/>
      </g>
      <g>
        <line class="cls-6" x1="281.2" y1="480.36" x2="209.29" y2="480.36"/>
        <polyline class="cls-4" points="273.18 478.19 281.2 480.36 273.18 482.69"/>
      </g>
      <g>
        <line class="cls-6" x1="394.6" y1="480.36" x2="356.49" y2="480.36"/>
        <polyline class="cls-4" points="386.58 478.19 394.6 480.36 386.58 482.69"/>
      </g>
      <g>
        <polyline class="cls-6" points="209.29 450.53 432.33 450.53 432.33 464.56"/>
        <polyline class="cls-4" points="217.31 452.7 209.29 450.53 217.31 448.2"/>
      </g>
      <circle class="cls-3" cx="141.41" cy="412.59" r="4.25"/>
      <g>
        <line class="cls-6" x1="162.1" y1="412.59" x2="141.55" y2="412.59"/>
        <polyline class="cls-4" points="154.08 410.42 162.1 412.59 154.08 414.92"/>
      </g>
    </g>
    <g id="Text">
      <g>
        <path class="cls-13" d="M222.5,507.91c.21.04.54.05.61.05h.82c.7,0,1.21.14,1.58.43.67.54.88,1.56.88,2.29,0,1.02-.43,2.61-2.46,2.61l-.86-.02c-.18,0-.34,0-.56.02.06-.19.09-.44.09-.78v-3.81c0-.26-.02-.62-.09-.79ZM223.14,512.84h.5c.64,0,1.18,0,1.63-.48.31-.33.56-.86.56-1.7s-.26-1.51-.59-1.84c-.48-.46-1.17-.46-1.53-.46-.16,0-.27,0-.58.02v4.45Z"/>
        <path class="cls-13" d="M228.46,509.5c.86,0,1.17.68,1.26,1.42l-2.17.7c.06.79.39,1.32,1.04,1.32.38,0,.71-.18.94-.5l.26.31c-.28.39-.76.6-1.23.6-1,0-1.56-.85-1.56-1.95,0-.85.39-1.9,1.45-1.9ZM227.55,511.23l1.62-.53c-.1-.43-.29-.78-.73-.78s-.87.44-.9,1.31Z"/>
        <path class="cls-13" d="M231.11,509.56h.7c.07,0,.22-.02.34-.05-.06.34-.07.35-.11.42-.03.05-.08.06-.16.06h-.77v2.37c0,.45.12.62.41.62.26,0,.49-.14.71-.38-.02.19-.05.44-.08.52,0,.02-.28.24-.74.24-.62,0-.78-.38-.78-.91v-2.45h-.38v-.46c.24.03.22.03.38.03v-.86l.49-.25v1.1Z"/>
        <path class="cls-13" d="M233.82,509.5c.86,0,1.17.68,1.26,1.42l-2.17.7c.06.79.39,1.32,1.04,1.32.38,0,.71-.18.94-.5l.26.31c-.28.39-.76.6-1.23.6-1,0-1.56-.85-1.56-1.95,0-.85.39-1.9,1.45-1.9ZM232.91,511.23l1.62-.53c-.1-.43-.29-.78-.73-.78s-.87.44-.9,1.31Z"/>
        <path class="cls-13" d="M237.26,509.5c.2,0,.26.05.26.14,0,.06,0,.06-.11.41-.08-.03-.12-.05-.22-.05-.28,0-.54.11-.74.34v1.77c0,1.07.06,1.06.09,1.18h-.66c.03-.1.09-.11.09-1.18v-1c0-1.12-.05-1.2-.1-1.34l.54-.25.03.36c.25-.23.44-.38.82-.38Z"/>
        <path class="cls-13" d="M239.64,509.5c.23,0,.5.05.7.18.1.06.17.14.22.25.33-.27.74-.42,1.14-.42.35,0,.77.11.94.44.1.18.1.46.1.66v1.52c0,1.06.06,1.06.09,1.18h-.66c.03-.1.09-.11.09-1.18v-1.43c0-.5-.07-.77-.6-.77-.4,0-.72.14-1,.41v1.79c0,1.06.06,1.06.09,1.18h-.66c.03-.1.09-.11.09-1.18v-1.48c0-.42-.11-.72-.62-.72-.43,0-.7.19-.98.41v1.79c0,1.07.06,1.08.08,1.18h-.64c.06-.14.08-.32.08-1.15v-1.11c0-.43,0-.69-.02-.86,0-.12-.02-.24-.08-.4l.54-.25.04.4c.3-.31.67-.42,1.06-.42Z"/>
        <path class="cls-13" d="M244.44,512.11c0,1.07.06,1.08.08,1.18h-.65c.03-.11.08-.15.08-1.18v-.86c0-.29,0-1.01-.02-1.17-.02-.15-.04-.19-.07-.31l.58-.25v2.59ZM244.21,507.89c.18,0,.33.14.33.31s-.14.31-.33.31-.32-.14-.32-.31.14-.31.32-.31Z"/>
        <path class="cls-13" d="M247.34,509.5c.93,0,1.1.46,1.1.98v1.63c0,1.06.06,1.06.09,1.18h-.66c.03-.1.09-.11.09-1.18v-1.56c0-.33-.1-.64-.64-.64-.42,0-.86.17-1.16.45v1.75c0,1.06.06,1.06.09,1.18h-.66c.03-.1.09-.11.09-1.18v-.83c0-.44,0-.62,0-.82,0-.46-.04-.52-.09-.69l.55-.25.03.37c.36-.26.75-.39,1.19-.39Z"/>
        <path class="cls-13" d="M250.79,509.5c.86,0,1.17.68,1.26,1.42l-2.17.7c.06.79.39,1.32,1.04,1.32.38,0,.71-.18.94-.5l.26.31c-.28.39-.76.6-1.23.6-1,0-1.56-.85-1.56-1.95,0-.85.39-1.9,1.45-1.9ZM249.89,511.23l1.62-.53c-.1-.43-.29-.78-.73-.78s-.87.44-.9,1.31Z"/>
        <path class="cls-13" d="M255.09,509.56c0,.15,0,.26.2.76l.82,2.15.74-1.91c-.06-.14-.1-.26-.14-.35-.18-.42-.21-.48-.35-.65h.7c0,.21,0,.3.22.83l.82,2.08.82-2.13c.06-.14.18-.5.18-.68,0-.05,0-.07-.02-.1h.72c-.22.26-.3.49-.48.93l-1.17,2.86h-.12l-.96-2.24-.94,2.24h-.11l-.82-2.02c-.29-.7-.5-1.26-.85-1.77h.74Z"/>
        <path class="cls-13" d="M260.85,509.88c.34-.28.7-.38,1.17-.38.82,0,1.08.38,1.11.68,0,.08,0,.29,0,.34v1.74c0,.86.04.88.09,1.03h-.65c.03-.1.09-.11.09-1.18v-1.53c0-.09,0-.29-.06-.42-.09-.15-.29-.26-.59-.26-.46,0-.85.17-1.16.43v1.77c0,1.06.06,1.07.09,1.18h-.66c.03-.1.09-.11.09-1.18v-2.76c0-1.23-.02-1.3-.1-1.53l.59-.25v2.29Z"/>
        <path class="cls-13" d="M265.49,509.5c.86,0,1.17.68,1.26,1.42l-2.17.7c.06.79.39,1.32,1.04,1.32.38,0,.71-.18.94-.5l.26.31c-.28.39-.76.6-1.23.6-1,0-1.56-.85-1.56-1.95,0-.85.39-1.9,1.45-1.9ZM264.58,511.23l1.62-.53c-.1-.43-.29-.78-.73-.78s-.87.44-.9,1.31Z"/>
        <path class="cls-13" d="M268.14,509.56h.7c.07,0,.22-.02.34-.05-.06.34-.07.35-.11.42-.03.05-.08.06-.16.06h-.77v2.37c0,.45.12.62.41.62.26,0,.49-.14.71-.38-.02.19-.05.44-.08.52,0,.02-.28.24-.74.24-.62,0-.78-.38-.78-.91v-2.45h-.38v-.46c.24.03.22.03.38.03v-.86l.49-.25v1.1Z"/>
        <path class="cls-13" d="M270.4,509.88c.34-.28.7-.38,1.17-.38.82,0,1.08.38,1.11.68,0,.08,0,.29,0,.34v1.74c0,.86.04.88.09,1.03h-.65c.03-.1.09-.11.09-1.18v-1.53c0-.09,0-.29-.06-.42-.09-.15-.29-.26-.59-.26-.46,0-.85.17-1.16.43v1.77c0,1.06.06,1.07.09,1.18h-.66c.03-.1.09-.11.09-1.18v-2.76c0-1.23-.02-1.3-.1-1.53l.59-.25v2.29Z"/>
        <path class="cls-13" d="M275.04,509.5c.86,0,1.17.68,1.26,1.42l-2.17.7c.06.79.39,1.32,1.04,1.32.38,0,.71-.18.94-.5l.26.31c-.28.39-.76.6-1.23.6-1,0-1.56-.85-1.56-1.95,0-.85.39-1.9,1.45-1.9ZM274.14,511.23l1.62-.53c-.1-.43-.29-.78-.73-.78s-.87.44-.9,1.31Z"/>
        <path class="cls-13" d="M278.49,509.5c.2,0,.26.05.26.14,0,.06,0,.06-.11.41-.08-.03-.12-.05-.22-.05-.28,0-.54.11-.74.34v1.77c0,1.07.06,1.06.09,1.18h-.66c.03-.1.09-.11.09-1.18v-1c0-1.12-.05-1.2-.1-1.34l.54-.25.03.36c.25-.23.44-.38.82-.38Z"/>
        <path class="cls-13" d="M222.95,522.11c0,1.06.06,1.06.09,1.18h-.65c.03-.1.09-.11.09-1.18v-2.75c0-.38,0-.92-.02-1.11-.02-.26-.06-.33-.08-.41l.57-.26v4.53Z"/>
        <path class="cls-13" d="M224.22,520.12c.25-.38.69-.62,1.27-.62.78,0,1.23.39,1.46.97.11.3.17.64.17,1.01,0,1.23-.71,1.88-1.62,1.88-.99,0-1.62-.74-1.62-1.87,0-.53.1-.99.35-1.37ZM224.7,520.27c-.2.28-.3.66-.3,1.17,0,.79.26,1.5,1.1,1.5s1.1-.71,1.1-1.5c0-1-.39-1.52-1.1-1.52-.31,0-.62.11-.78.35Z"/>
        <path class="cls-13" d="M228.08,520.12c.25-.38.69-.62,1.27-.62.78,0,1.23.39,1.46.97.11.3.17.64.17,1.01,0,1.23-.71,1.88-1.62,1.88-.99,0-1.62-.74-1.62-1.87,0-.53.1-.99.35-1.37ZM228.56,520.27c-.2.28-.3.66-.3,1.17,0,.79.26,1.5,1.1,1.5s1.1-.71,1.1-1.5c0-1-.39-1.52-1.1-1.52-.31,0-.62.11-.78.35Z"/>
        <path class="cls-13" d="M233.29,519.5c.82,0,1.5.62,1.5,1.9,0,1.47-.87,1.95-1.58,1.95-.32,0-.62-.08-.86-.26v.65c0,.84.04.9.09,1.04h-.66c.06-.15.09-.4.09-1.07v-2.43c0-.62,0-1.1-.03-1.25-.02-.12-.04-.17-.06-.26l.55-.25.03.33c.26-.24.56-.35.95-.35ZM232.34,522.57c.23.25.51.37.84.37.19,0,.45-.05.66-.25.23-.22.42-.54.42-1.31,0-.87-.3-1.46-1.04-1.46-.33,0-.66.15-.89.4v2.25Z"/>
        <path class="cls-13" d="M236.24,522.11c0,1.07.06,1.08.08,1.18h-.65c.03-.11.08-.15.08-1.18v-.86c0-.29,0-1.01-.02-1.17-.02-.15-.04-.19-.07-.31l.58-.25v2.59ZM236.01,517.89c.18,0,.33.14.33.31s-.14.31-.33.31-.32-.14-.32-.31.14-.31.32-.31Z"/>
        <path class="cls-13" d="M239.14,519.5c.93,0,1.1.46,1.1.98v1.63c0,1.06.06,1.06.09,1.18h-.66c.03-.1.09-.11.09-1.18v-1.56c0-.33-.1-.64-.64-.64-.42,0-.86.17-1.16.45v1.75c0,1.06.06,1.06.09,1.18h-.66c.03-.1.09-.11.09-1.18v-.83c0-.44,0-.62,0-.82,0-.46-.04-.52-.09-.69l.55-.25.03.37c.36-.26.75-.39,1.19-.39Z"/>
        <path class="cls-13" d="M244.23,519.84c-.03.15-.18.16-.31.16-.02,0-.21,0-.4-.03.1.14.25.33.25.83,0,.41-.21,1.25-1.14,1.29-.42,0-.77.04-.77.42,0,.2.14.37.43.37.1,0,.55-.03.64-.03.24,0,1.34,0,1.34.92,0,.82-.91,1.1-1.69,1.1-1.22,0-1.39-.67-1.39-.95,0-.13.02-.58.61-.82-.15-.05-.41-.18-.41-.57,0-.41.28-.53.42-.58-.18-.13-.54-.4-.54-1.1,0-.63.31-1.33,1.23-1.33.18,0,.34.02.72.08.07,0,.48.02.55.02.38,0,.42-.02.54-.06l-.06.3ZM241.69,523.89c0,.35.33.58.94.58s1.15-.22,1.15-.69c0-.56-.79-.57-.98-.57-.54,0-1.12.2-1.12.67ZM242.52,519.88c-.22,0-.78.09-.78.94,0,.66.41.9.78.9.32,0,.78-.18.78-.9,0-.82-.5-.94-.78-.94Z"/>
        <path class="cls-13" d="M248.04,519.5c.36,0,.7.1.9.22.06.04.06.06.06.11,0,.13-.04.17-.18.46-.2-.29-.52-.42-.85-.42-.42,0-.65.26-.65.55,0,.31.19.44,1.06.9.42.22.71.5.71.99,0,.52-.4,1.03-1.26,1.03-.64,0-1.12-.25-1.12-.42,0-.06.02-.06.21-.46.18.39.61.5.9.5.49,0,.81-.26.81-.6,0-.39-.36-.56-.8-.81-.58-.33-.96-.54-.96-1.12s.46-.94,1.18-.94Z"/>
        <path class="cls-13" d="M250.51,519.88c.34-.28.7-.38,1.17-.38.82,0,1.08.38,1.11.68,0,.08,0,.29,0,.34v1.74c0,.86.04.88.09,1.03h-.65c.03-.1.09-.11.09-1.18v-1.53c0-.09,0-.29-.06-.42-.09-.15-.29-.26-.59-.26-.46,0-.85.17-1.16.43v1.77c0,1.06.06,1.07.09,1.18h-.66c.03-.1.09-.11.09-1.18v-2.76c0-1.23-.02-1.3-.1-1.53l.59-.25v2.29Z"/>
        <path class="cls-13" d="M254.06,520.12c.25-.38.69-.62,1.27-.62.78,0,1.23.39,1.46.97.11.3.17.64.17,1.01,0,1.23-.71,1.88-1.62,1.88-.99,0-1.62-.74-1.62-1.87,0-.53.1-.99.35-1.37ZM254.54,520.27c-.2.28-.3.66-.3,1.17,0,.79.26,1.5,1.1,1.5s1.1-.71,1.1-1.5c0-1-.39-1.52-1.1-1.52-.31,0-.62.11-.78.35Z"/>
        <path class="cls-13" d="M258.28,522.19c0,.16,0,.36.08.49.08.14.27.26.57.26.33,0,.74-.1,1.15-.42v-1.81c0-.85-.03-.92-.1-1.14h.69c-.06.22-.1.29-.1,1.17v1.74c0,.22.02.48.08.67l-.51.22-.05-.35c-.41.25-.75.35-1.2.35-.86,0-1.09-.4-1.09-1.06v-1.02c0-.27,0-1.02-.02-1.11-.02-.25-.05-.28-.09-.41l.59-.25v2.69Z"/>
        <path class="cls-13" d="M262.21,522.11c0,1.06.06,1.06.09,1.18h-.65c.03-.1.09-.11.09-1.18v-2.75c0-.38,0-.92-.02-1.11-.02-.26-.06-.33-.08-.41l.57-.26v4.53Z"/>
        <path class="cls-13" d="M266.05,522.06c0,.72.09.84.28,1.02-.3.22-.34.27-.39.27-.08,0-.17-.18-.26-.39-.31.28-.61.39-1.01.39-1.01,0-1.5-.92-1.5-1.92,0-1.33.74-1.94,1.55-1.94.34,0,.62.1.84.29,0-1.82-.04-1.74-.1-1.96l.58-.25v4.48ZM263.7,521.47c0,.83.35,1.46,1.02,1.46.32,0,.65-.14.85-.39v-2.24c-.21-.27-.46-.39-.81-.39-.74,0-1.06.77-1.06,1.56Z"/>
        <path class="cls-13" d="M223.82,529.5c.42,0,.74.12.92.26.08.06.12.11.12.19,0,.03,0,.07-.02.1l-.17.34c-.22-.3-.51-.49-.91-.49-.58,0-1.08.46-1.08,1.46,0,.87.32,1.56,1.12,1.56.43,0,.74-.22.99-.45l-.02.46c0,.22-.47.41-.98.41-1.13,0-1.62-.91-1.62-1.91,0-1.1.54-1.94,1.66-1.94Z"/>
        <path class="cls-13" d="M225.59,530.12c.25-.38.69-.62,1.27-.62.78,0,1.23.39,1.46.97.11.3.17.64.17,1.01,0,1.23-.71,1.88-1.62,1.88-.99,0-1.62-.74-1.62-1.87,0-.53.1-.99.35-1.37ZM226.07,530.27c-.2.28-.3.66-.3,1.17,0,.79.26,1.5,1.1,1.5s1.1-.71,1.1-1.5c0-1-.39-1.52-1.1-1.52-.31,0-.62.11-.78.35Z"/>
        <path class="cls-13" d="M231.09,529.5c.93,0,1.1.46,1.1.98v1.63c0,1.06.06,1.06.09,1.18h-.66c.03-.1.09-.11.09-1.18v-1.56c0-.33-.1-.64-.64-.64-.42,0-.86.17-1.16.45v1.75c0,1.06.06,1.06.09,1.18h-.66c.03-.1.09-.11.09-1.18v-.83c0-.44,0-.62,0-.82,0-.46-.04-.52-.09-.69l.55-.25.03.37c.36-.26.75-.39,1.19-.39Z"/>
        <path class="cls-13" d="M233.91,529.56h.7c.07,0,.22-.02.34-.05-.06.34-.07.35-.11.42-.03.05-.08.06-.16.06h-.77v2.37c0,.45.12.62.41.62.26,0,.49-.14.71-.38-.02.19-.05.44-.08.52,0,.02-.28.24-.74.24-.62,0-.78-.38-.78-.91v-2.45h-.38v-.46c.24.03.22.03.38.03v-.86l.49-.25v1.1Z"/>
        <path class="cls-13" d="M236.17,532.11c0,1.07.06,1.08.08,1.18h-.65c.03-.11.08-.15.08-1.18v-.86c0-.29,0-1.01-.02-1.17-.02-.15-.04-.19-.07-.31l.58-.25v2.59ZM235.94,527.89c.18,0,.33.14.33.31s-.14.31-.33.31-.32-.14-.32-.31.14-.31.32-.31Z"/>
        <path class="cls-13" d="M239.07,529.5c.93,0,1.1.46,1.1.98v1.63c0,1.06.06,1.06.09,1.18h-.66c.03-.1.09-.11.09-1.18v-1.56c0-.33-.1-.64-.64-.64-.42,0-.86.17-1.16.45v1.75c0,1.06.06,1.06.09,1.18h-.66c.03-.1.09-.11.09-1.18v-.83c0-.44,0-.62,0-.82,0-.46-.04-.52-.09-.69l.55-.25.03.37c.36-.26.75-.39,1.19-.39Z"/>
        <path class="cls-13" d="M241.79,532.19c0,.16,0,.36.08.49.08.14.27.26.57.26.33,0,.74-.1,1.15-.42v-1.81c0-.85-.03-.92-.1-1.14h.69c-.06.22-.1.29-.1,1.17v1.74c0,.22.02.48.08.67l-.51.22-.05-.35c-.41.25-.75.35-1.2.35-.86,0-1.09-.4-1.09-1.06v-1.02c0-.27,0-1.02-.02-1.11-.02-.25-.05-.28-.09-.41l.59-.25v2.69Z"/>
        <path class="cls-13" d="M246.38,529.5c.86,0,1.17.68,1.26,1.42l-2.17.7c.06.79.39,1.32,1.04,1.32.38,0,.71-.18.94-.5l.26.31c-.28.39-.76.6-1.23.6-1,0-1.56-.85-1.56-1.95,0-.85.39-1.9,1.45-1.9ZM245.47,531.23l1.62-.53c-.1-.43-.29-.78-.73-.78s-.87.44-.9,1.31Z"/>
      </g>
      <g>
        <path class="cls-13" d="M309.2,542.38c.6.27,1.1.41,1.53.41.58.03,1.09-.39,1.06-.88,0-.32-.2-.59-.6-.8l-.98-.51c-.36-.19-.61-.39-.76-.59-.14-.2-.21-.44-.21-.71,0-.35.12-.66.36-.92.25-.27.64-.4,1.18-.4.38,0,.83.07,1.32.21v.58c-.49-.19-.93-.28-1.32-.28-.55-.03-.92.29-.91.7,0,.15.05.29.15.42.09.13.27.26.53.39l.92.48c.39.2.66.41.79.61.14.2.21.44.21.71,0,.43-.15.78-.46,1.07-.31.29-.76.43-1.34.43-.15,0-.32-.01-.5-.04-.19-.02-.5-.09-.95-.21v-.67Z"/>
        <path class="cls-13" d="M313.34,544.52v-.5h.27c.27,0,.47-.05.6-.15.14-.12.22-.25.33-.5l.17-.35-1.55-3.55h.69l1.21,2.78,1.23-2.78h.61l-1.87,4.19c-.14.31-.32.54-.54.69-.22.15-.46.18-.85.18h-.29Z"/>
        <path class="cls-13" d="M317.72,542.41c.53.22.97.34,1.36.34.62,0,.95-.3.95-.59,0-.1-.04-.2-.12-.28-.08-.08-.25-.16-.52-.25l-.72-.24c-.26-.08-.47-.2-.62-.36-.15-.16-.23-.36-.23-.6,0-.62.48-1.06,1.46-1.06.15,0,.3,0,.46.02.16.01.41.06.76.14v.55c-.44-.13-.85-.2-1.22-.2-.51,0-.81.21-.81.5,0,.09.04.18.1.24.06.07.2.14.4.21l.85.3c.34.12.57.25.69.41s.17.35.17.57c0,.32-.13.59-.41.81-.27.22-.67.34-1.19.34-.43,0-.89-.08-1.37-.23v-.61Z"/>
        <path class="cls-13" d="M325.07,543.17c-.34.06-.67.08-.98.08-.54,0-.92-.1-1.12-.29-.25-.23-.29-.57-.29-1.12v-1.79h-.93v-.5h.93v-.8h.67v.8h1.65v.5h-1.65v1.91c0,.23.01.38.04.44.02.06.06.11.12.16.19.15.46.2.74.2s.56-.04.83-.1v.52Z"/>
        <path class="cls-13" d="M329.28,543.02c-.12.04-.2.06-.27.08-.34.11-.68.15-1.02.15-.7,0-1.2-.18-1.52-.54s-.47-.81-.47-1.36.16-1.01.48-1.4c.32-.38.75-.58,1.27-.58.46,0,.81.14,1.09.41s.41.76.41,1.48v.22h-2.54c.03.48.17.81.43.99.26.18.58.27.93.27s.76-.08,1.19-.26v.53ZM328.53,540.98v-.1c0-.72-.36-1.01-.83-1.01-.53,0-.9.4-.96,1.11h1.79Z"/>
        <path class="cls-13" d="M330.06,543.17v-3.71h.6l-.04.69h.04c.29-.51.53-.78.83-.78s.59.28.62.78h.05c.19-.41.49-.78.83-.78.13,0,.25.04.35.11.1.07.19.17.24.3.05.13.08.35.08.67v2.72h-.6v-2.69c0-.17,0-.29-.02-.35-.03-.11-.11-.17-.19-.17-.11,0-.22.08-.36.25-.13.16-.25.35-.34.57v2.4h-.6v-2.57c0-.24,0-.39-.03-.45-.03-.12-.11-.19-.19-.19-.1,0-.22.08-.35.25-.13.16-.25.35-.34.57v2.39h-.6Z"/>
        <path class="cls-13" d="M335.57,543.17v-1.02h1.02v1.02h-1.02Z"/>
        <path class="cls-13" d="M339,542.71c-.3-.36-.46-.83-.46-1.4s.15-1.04.46-1.4c.3-.36.74-.54,1.3-.54s.99.18,1.3.54c.3.36.46.82.46,1.4s-.15,1.04-.46,1.4c-.3.36-.74.54-1.3.54s-.99-.18-1.3-.54ZM341.33,541.31c0-.9-.38-1.44-1.04-1.44s-1.03.54-1.03,1.44.38,1.44,1.03,1.44,1.04-.54,1.04-1.44Z"/>
        <path class="cls-13" d="M346.01,539.46v3.71h-.68l.04-.7h-.04c-.3.51-.76.78-1.27.78-.35,0-.62-.12-.81-.36-.2-.23-.24-.48-.24-.9v-2.54h.67v2.35c0,.29,0,.44.11.58.1.15.28.22.48.22.36,0,.69-.24,1.06-.74v-2.42h.68Z"/>
        <path class="cls-13" d="M350.39,543.17c-.34.06-.67.08-.98.08-.54,0-.92-.1-1.12-.29-.25-.23-.29-.57-.29-1.12v-1.79h-.93v-.5h.93v-.8h.67v.8h1.65v.5h-1.65v1.91c0,.23.01.38.04.44.02.06.06.11.12.16.19.15.46.2.74.2s.56-.04.83-.1v.52Z"/>
        <path class="cls-13" d="M352.45,543.17v-1.02h1.02v1.02h-1.02Z"/>
        <path class="cls-13" d="M355.68,544.52v-5.06h.68l-.04.69h.04c.33-.51.73-.78,1.21-.78.43,0,.76.17.99.5.25.33.36.77.36,1.32,0,.62-.14,1.11-.41,1.48-.29.38-.7.59-1.14.59-.36,0-.68-.11-1.02-.5h-.04l.04.5v1.27h-.68ZM356.36,542.24c.31.34.62.5.92.5.25,0,.47-.11.66-.34.19-.23.28-.61.28-1.15,0-.96-.34-1.32-.79-1.32-.31,0-.71.21-1.07.71v1.58Z"/>
        <path class="cls-13" d="M360.34,543.17v-3.71h.68l-.04.69h.04c.31-.47.71-.78,1.38-.78.2,0,.43.03.69.08v1.06h-.5v-.53c-.1-.02-.2-.04-.29-.04-.46,0-.88.27-1.27.81v2.42h-.68Z"/>
        <path class="cls-13" d="M365.45,543.17v-3.21h-1.35v-.5h2.03v3.71h-.68ZM365.37,538.61v-.85h.85v.85h-.85Z"/>
        <path class="cls-13" d="M368.36,543.17v-3.71h.67l-.04.69h.04c.3-.5.76-.78,1.27-.78.35,0,.62.12.82.36.19.23.24.48.24.9v2.54h-.68v-2.35c0-.29-.01-.44-.1-.58-.11-.16-.29-.22-.48-.22-.36,0-.69.25-1.06.73v2.43h-.67Z"/>
        <path class="cls-13" d="M375.72,543.17c-.34.06-.67.08-.98.08-.54,0-.92-.1-1.12-.29-.25-.23-.29-.57-.29-1.12v-1.79h-.93v-.5h.93v-.8h.67v.8h1.65v.5h-1.65v1.91c0,.23.01.38.04.44.02.06.06.11.12.16.19.15.46.2.74.2s.56-.04.83-.1v.52Z"/>
        <path class="cls-13" d="M377.69,543.17v-3.12h-1.02v-.5h1.02v-.39c0-.27.03-.5.08-.66.14-.48.62-.81,1.47-.81.37,0,.71.05,1.04.15v.53c-.33-.12-.66-.17-.98-.17s-.56.07-.72.2c-.15.13-.21.27-.21.69v.46h1.77v.5h-1.77v3.12h-.67Z"/>
        <path class="cls-13" d="M384.11,544.18c-1.53-.17-2.54-1.57-2.54-3.21s1.01-3.05,2.54-3.21v.46c-.43.08-.77.25-1.03.48-.51.48-.83,1.32-.83,2.26,0,.47.07.9.22,1.3.3.81.79,1.27,1.64,1.44v.47Z"/>
        <path class="cls-1" d="M385.46,539.62v-.76c0-.81.32-1.1.84-1.1v.34c-.24,0-.36.17-.36.5v.18h.36v.84h-.84ZM387.14,539.62v-.76c0-.81.32-1.1.85-1.1v.34c-.24,0-.36.17-.36.5v.18h.36v.84h-.85Z"/>
        <path class="cls-1" d="M389.35,540.3c-.31-.18-.52-.61-.52-1.03,0-.66.47-1.2,1.04-1.16.57-.04,1.05.51,1.04,1.16,0,.22-.05.42-.15.61-.19.39-.53.55-.89.55-.19,0-.36-.04-.52-.13ZM388.84,543.29l3.71-5.32h.52l-3.71,5.32h-.51ZM390.41,539.27c0-.53-.25-.83-.53-.83s-.53.3-.53.83.25.82.53.82.53-.29.53-.82ZM390.99,542c0-.2.04-.41.13-.59.19-.39.52-.57.9-.57.57-.04,1.05.53,1.04,1.16,0,.22-.05.42-.15.62-.19.38-.53.55-.89.55-.55.04-1.05-.49-1.04-1.16ZM392.55,542c0-.52-.24-.82-.53-.82s-.53.29-.53.82.25.83.53.83.53-.29.53-.83Z"/>
        <path class="cls-1" d="M396.07,543.17l.04-.7h-.04c-.33.53-.74.78-1.22.78-.42,0-.75-.16-1-.49-.25-.33-.36-.78-.36-1.33,0-.61.14-1.1.42-1.47.28-.39.69-.59,1.14-.59.34,0,.67.09,1.02.5h.04l-.04-.5v-1.6h.67v5.4h-.67ZM396.07,540.39c-.32-.34-.62-.51-.92-.51-.25,0-.46.11-.65.34-.19.22-.28.61-.28,1.16,0,.95.33,1.31.78,1.31.32,0,.72-.22,1.08-.71v-1.58Z"/>
        <path class="cls-1" d="M407.41,537.77v.76c0,.81-.33,1.1-.84,1.1v-.34c.24,0,.36-.17.36-.5v-.18h-.36v-.85h.84ZM409.1,537.77v.76c0,.81-.32,1.1-.85,1.1v-.34c.25,0,.36-.17.36-.5v-.18h-.36v-.85h.85Z"/>
        <path class="cls-13" d="M411.54,543.92c.28-.07.33-.13.41-.6v-.15s-.41,0-.41,0v-1.02h1.02v.62c0,.37-.04.65-.13.84-.16.38-.44.63-.89.66v-.34Z"/>
        <path class="cls-13" d="M422.16,543.05c-.4.13-.8.2-1.2.2-1.35,0-2.02-.76-2.02-1.94,0-.58.17-1.05.5-1.41.34-.36.82-.53,1.45-.53.39,0,.79.06,1.19.17v.57c-.44-.16-.81-.24-1.13-.24-.82,0-1.3.56-1.3,1.44s.53,1.44,1.39,1.44c.33,0,.69-.08,1.11-.23v.53Z"/>
        <path class="cls-13" d="M423.42,542.71c-.3-.36-.46-.83-.46-1.4s.15-1.04.46-1.4c.3-.36.74-.54,1.3-.54s.99.18,1.29.54c.3.36.46.82.46,1.4s-.15,1.04-.46,1.4c-.3.36-.74.54-1.29.54s-1-.18-1.3-.54ZM425.75,541.31c0-.9-.38-1.44-1.04-1.44s-1.03.54-1.03,1.44.38,1.44,1.03,1.44,1.04-.54,1.04-1.44Z"/>
        <path class="cls-13" d="M430.43,539.46v3.71h-.68l.04-.7h-.04c-.3.51-.76.78-1.27.78-.35,0-.62-.12-.81-.36-.2-.23-.24-.48-.24-.9v-2.54h.67v2.35c0,.29,0,.44.11.58.11.15.28.22.48.22.36,0,.69-.24,1.06-.74v-2.42h.68Z"/>
        <path class="cls-13" d="M431.67,543.17v-3.71h.67l-.04.69h.04c.3-.5.76-.78,1.27-.78.35,0,.62.12.82.36.19.23.24.48.24.9v2.54h-.68v-2.35c0-.29-.01-.44-.11-.58-.11-.16-.29-.22-.48-.22-.36,0-.69.25-1.06.73v2.43h-.67Z"/>
        <path class="cls-13" d="M439.04,543.17c-.34.06-.67.08-.98.08-.54,0-.92-.1-1.12-.29-.25-.23-.29-.57-.29-1.12v-1.79h-.93v-.5h.93v-.8h.67v.8h1.65v.5h-1.65v1.91c0,.23.01.38.04.44.02.06.06.11.12.16.19.15.46.2.74.2s.56-.04.83-.1v.52Z"/>
        <path class="cls-13" d="M443.24,543.02c-.12.04-.2.06-.27.08-.34.11-.68.15-1.02.15-.7,0-1.21-.18-1.52-.54-.31-.36-.47-.81-.47-1.36s.16-1.01.48-1.4c.32-.38.75-.58,1.27-.58.46,0,.81.14,1.08.41.27.27.41.76.41,1.48v.22h-2.54c.03.48.18.81.43.99s.57.27.93.27.76-.08,1.19-.26v.53ZM442.5,540.98v-.1c0-.72-.36-1.01-.83-1.01-.52,0-.9.4-.96,1.11h1.79Z"/>
        <path class="cls-13" d="M444.76,543.17v-3.71h.68l-.04.69h.04c.31-.47.71-.78,1.38-.78.2,0,.43.03.69.08v1.06h-.5v-.53c-.11-.02-.2-.04-.29-.04-.46,0-.88.27-1.27.81v2.42h-.68Z"/>
        <path class="cls-13" d="M448.43,537.77c1.53.16,2.54,1.58,2.54,3.21s-1.01,3.03-2.54,3.21v-.47c.43-.08.76-.25,1.02-.48.53-.47.83-1.32.83-2.26,0-.47-.08-.9-.22-1.3-.29-.81-.78-1.27-1.63-1.44v-.46Z"/>
        <path class="cls-13" d="M453.75,540.46v-1.01h1.02v1.01h-1.02ZM453.75,543.92c.17-.02.22-.06.27-.15.08-.11.13-.22.15-.61h-.42v-1.02h1.02v.62c0,.37-.04.65-.13.84-.16.38-.44.63-.89.66v-.34Z"/>
      </g>
      <g>
        <path class="cls-13" d="M159.06,494.71v.37h-.7v6.09h.7v.37h-1.18v-6.83h1.18Z"/>
        <path class="cls-13" d="M161.19,496.25c.42,0,.74.12.92.26.08.06.12.11.12.19,0,.03,0,.07-.02.1l-.17.34c-.22-.3-.51-.49-.91-.49-.58,0-1.08.46-1.08,1.46,0,.87.32,1.56,1.12,1.56.43,0,.74-.22.99-.45l-.02.46c0,.22-.47.41-.98.41-1.13,0-1.62-.91-1.62-1.91,0-1.1.54-1.94,1.66-1.94Z"/>
        <path class="cls-13" d="M162.96,496.87c.25-.38.69-.62,1.27-.62.78,0,1.23.39,1.46.97.11.3.17.64.17,1.01,0,1.23-.71,1.88-1.62,1.88-.99,0-1.62-.74-1.62-1.87,0-.53.1-.99.35-1.37ZM163.44,497.02c-.2.28-.3.66-.3,1.17,0,.79.26,1.5,1.1,1.5s1.1-.71,1.1-1.5c0-1-.39-1.52-1.1-1.52-.31,0-.62.11-.78.35Z"/>
        <path class="cls-13" d="M167.19,498.94c0,.16,0,.36.08.49.08.14.27.26.57.26.33,0,.74-.1,1.15-.42v-1.81c0-.85-.03-.92-.1-1.14h.69c-.06.22-.1.29-.1,1.17v1.74c0,.22.02.48.08.67l-.51.22-.05-.35c-.41.25-.75.35-1.2.35-.86,0-1.09-.4-1.09-1.06v-1.02c0-.27,0-1.02-.02-1.11-.02-.25-.05-.28-.09-.41l.59-.25v2.69Z"/>
        <path class="cls-13" d="M172.31,496.25c.93,0,1.1.46,1.1.98v1.63c0,1.06.06,1.06.09,1.18h-.66c.03-.1.09-.11.09-1.18v-1.56c0-.33-.1-.64-.64-.64-.42,0-.86.17-1.16.45v1.75c0,1.06.06,1.06.09,1.18h-.66c.03-.1.09-.11.09-1.18v-.83c0-.44,0-.62,0-.82,0-.46-.04-.52-.09-.69l.55-.25.03.37c.36-.26.75-.39,1.19-.39Z"/>
        <path class="cls-13" d="M175.14,496.31h.7c.07,0,.22-.02.34-.05-.06.33-.07.35-.11.42-.03.05-.08.06-.16.06h-.77v2.37c0,.45.12.62.41.62.26,0,.49-.14.71-.38-.02.19-.05.44-.08.52,0,.02-.28.24-.74.24-.62,0-.78-.38-.78-.91v-2.45h-.38v-.46c.24.03.22.03.38.03v-.86l.49-.25v1.1Z"/>
        <path class="cls-13" d="M177.84,496.25c.86,0,1.17.68,1.26,1.42l-2.17.7c.06.79.39,1.32,1.04,1.32.38,0,.71-.18.94-.5l.26.31c-.28.39-.76.6-1.23.6-1,0-1.56-.85-1.56-1.95,0-.85.39-1.9,1.45-1.9ZM176.94,497.98l1.62-.53c-.1-.43-.29-.78-.73-.78s-.87.44-.9,1.31Z"/>
        <path class="cls-13" d="M181.29,496.25c.2,0,.26.05.26.14,0,.06,0,.06-.11.41-.08-.03-.12-.05-.22-.05-.28,0-.54.11-.74.34v1.77c0,1.07.06,1.06.09,1.18h-.66c.03-.1.09-.11.09-1.18v-1c0-1.12-.05-1.2-.1-1.34l.54-.25.03.36c.25-.23.44-.38.82-.38Z"/>
        <path class="cls-13" d="M183.69,496.05l3.62,1.74v.46l-3.62,1.74v-.5l3.07-1.47-3.07-1.47v-.5Z"/>
        <path class="cls-13" d="M191.69,495.03c-.02.11-.04.19-.04.84v2.99c0,.48.02.73.02.85.02.21.02.22.07.33h-.7c.05-.13.06-.14.07-.33.02-.15.02-.47.02-.76v-3.02c0-.42-.04-.58-.1-.69l.65-.21Z"/>
        <path class="cls-13" d="M195.08,495.04c1.14,0,1.62,1.22,1.62,2.49,0,1.34-.46,2.57-1.62,2.57s-1.62-1.33-1.62-2.57.46-2.49,1.62-2.49ZM194.01,497.58c0,.69.08,2.07,1.07,2.07.82,0,1.07-.95,1.07-2.03,0-.66-.1-2.13-1.07-2.13-.81,0-1.07,1.06-1.07,2.09Z"/>
        <path class="cls-13" d="M198.28,494.71v6.83h-1.18v-.37h.7v-6.09h-.7v-.37h1.18Z"/>
      </g>
      <g>
        <path class="cls-13" d="M220,470.49v.37h-.7v6.09h.7v.37h-1.18v-6.83h1.18Z"/>
        <path class="cls-13" d="M222.12,472.03c.42,0,.74.12.92.26.08.06.12.11.12.19,0,.03,0,.07-.02.1l-.17.34c-.22-.3-.51-.49-.91-.49-.58,0-1.08.46-1.08,1.46,0,.87.32,1.56,1.12,1.56.43,0,.74-.22.99-.45l-.02.46c0,.22-.47.41-.98.41-1.13,0-1.62-.91-1.62-1.91,0-1.1.54-1.94,1.65-1.94Z"/>
        <path class="cls-13" d="M223.9,472.65c.25-.38.69-.62,1.27-.62.78,0,1.23.39,1.46.97.11.3.17.64.17,1.01,0,1.23-.71,1.88-1.62,1.88-.99,0-1.62-.74-1.62-1.87,0-.53.1-.99.35-1.37ZM224.38,472.8c-.2.28-.3.66-.3,1.17,0,.79.26,1.5,1.1,1.5s1.1-.71,1.1-1.5c0-1-.39-1.52-1.1-1.52-.31,0-.62.11-.78.35Z"/>
        <path class="cls-13" d="M228.12,474.73c0,.16,0,.36.08.49.08.14.27.26.57.26.33,0,.74-.1,1.15-.42v-1.81c0-.85-.03-.92-.1-1.14h.69c-.06.22-.1.29-.1,1.17v1.74c0,.22.02.48.08.67l-.51.22-.05-.35c-.41.25-.75.35-1.2.35-.86,0-1.09-.4-1.09-1.06v-1.02c0-.27,0-1.02-.02-1.11-.02-.25-.05-.28-.09-.41l.59-.25v2.69Z"/>
        <path class="cls-13" d="M233.25,472.03c.93,0,1.1.46,1.1.98v1.63c0,1.06.06,1.06.09,1.18h-.66c.03-.1.09-.11.09-1.18v-1.56c0-.33-.1-.64-.64-.64-.42,0-.86.17-1.16.45v1.75c0,1.06.06,1.06.09,1.18h-.66c.03-.1.09-.11.09-1.18v-.83c0-.44,0-.62,0-.82,0-.46-.04-.52-.09-.69l.55-.25.03.37c.36-.26.75-.39,1.19-.39Z"/>
        <path class="cls-13" d="M236.08,472.1h.7c.07,0,.22-.02.34-.05-.06.33-.07.35-.11.42-.03.05-.08.06-.16.06h-.77v2.37c0,.45.12.62.41.62.26,0,.49-.14.71-.38-.02.19-.05.44-.08.52,0,.02-.28.24-.74.24-.62,0-.78-.38-.78-.91v-2.45h-.38v-.46c.24.03.22.03.38.03v-.86l.49-.25v1.1Z"/>
        <path class="cls-13" d="M238.78,472.03c.86,0,1.17.68,1.26,1.42l-2.17.7c.06.79.39,1.32,1.04,1.32.38,0,.71-.18.94-.5l.26.31c-.28.39-.76.6-1.23.6-1,0-1.56-.85-1.56-1.95,0-.85.39-1.9,1.45-1.9ZM237.88,473.76l1.62-.53c-.1-.43-.29-.78-.73-.78s-.87.44-.9,1.31Z"/>
        <path class="cls-13" d="M242.23,472.03c.2,0,.26.05.26.14,0,.06,0,.06-.11.41-.08-.03-.12-.05-.22-.05-.28,0-.54.11-.74.34v1.77c0,1.07.06,1.06.09,1.18h-.66c.03-.1.09-.11.09-1.18v-1c0-1.12-.05-1.2-.1-1.34l.54-.25.03.36c.25-.23.44-.38.82-.38Z"/>
        <path class="cls-13" d="M248.28,471.83v.5l-3.07,1.47,3.07,1.47v.5l-3.62-1.74v-.46l3.62-1.74Z"/>
        <path class="cls-13" d="M252.25,472.78v.46h-3.6v-.46h3.6ZM252.25,474.36v.46h-3.6v-.46h3.6Z"/>
        <path class="cls-13" d="M256.63,470.82c-.02.11-.04.19-.04.84v2.99c0,.48.02.73.02.85.02.21.02.22.07.33h-.7c.05-.13.06-.14.07-.33.02-.15.02-.47.02-.76v-3.02c0-.42-.04-.58-.1-.69l.65-.21Z"/>
        <path class="cls-13" d="M260.02,470.83c1.14,0,1.61,1.22,1.61,2.49,0,1.34-.46,2.57-1.61,2.57s-1.62-1.33-1.62-2.57.46-2.49,1.62-2.49ZM258.95,473.37c0,.69.08,2.07,1.07,2.07.82,0,1.07-.95,1.07-2.03,0-.66-.1-2.13-1.07-2.13-.81,0-1.07,1.06-1.07,2.09Z"/>
        <path class="cls-13" d="M263.22,470.49v6.83h-1.18v-.37h.7v-6.09h-.7v-.37h1.18Z"/>
      </g>
      <g>
        <polygon class="cls-18" points="262.9 402.32 336.92 402.32 343.29 408.68 343.29 423 262.9 423 262.9 402.32"/>
        <polygon class="cls-16" points="343.29 408.68 336.92 408.68 336.92 402.32 343.29 408.68"/>
      </g>
      <g>
        <path class="cls-19" d="M270.99,414.81v-3.21h-1.35v-.5h2.03v3.71h-.68ZM270.9,410.26v-.85h.85v.85h-.85Z"/>
        <path class="cls-19" d="M273.89,414.81v-3.71h.67l-.04.69h.04c.3-.5.76-.78,1.27-.78.35,0,.62.12.82.36.19.23.24.48.24.9v2.54h-.68v-2.35c0-.29-.01-.44-.1-.58-.1-.16-.29-.22-.48-.22-.36,0-.69.25-1.06.73v2.43h-.67Z"/>
        <path class="cls-19" d="M281.26,414.81c-.34.06-.67.08-.98.08-.54,0-.92-.1-1.12-.29-.25-.23-.29-.57-.29-1.12v-1.79h-.93v-.5h.93v-.8h.67v.8h1.65v.5h-1.65v1.91c0,.23.01.38.04.44.02.06.06.11.12.16.19.15.46.2.74.2s.56-.04.83-.1v.52Z"/>
        <path class="cls-13" d="M289.71,414.7c-.4.13-.8.2-1.2.2-1.35,0-2.02-.76-2.02-1.94,0-.58.17-1.05.5-1.41s.82-.53,1.45-.53c.39,0,.79.06,1.19.17v.57c-.44-.16-.81-.24-1.13-.24-.82,0-1.3.56-1.3,1.44s.53,1.44,1.39,1.44c.33,0,.69-.08,1.11-.23v.53Z"/>
        <path class="cls-13" d="M290.97,414.36c-.3-.36-.46-.83-.46-1.4s.15-1.04.46-1.4.74-.54,1.3-.54.99.18,1.3.54c.3.36.46.82.46,1.4s-.15,1.04-.46,1.4c-.3.36-.74.54-1.3.54s-.99-.18-1.3-.54ZM293.3,412.96c0-.9-.39-1.44-1.04-1.44s-1.03.54-1.03,1.44.38,1.44,1.03,1.44,1.04-.54,1.04-1.44Z"/>
        <path class="cls-13" d="M297.97,411.1v3.71h-.68l.04-.7h-.04c-.3.51-.76.78-1.27.78-.35,0-.62-.12-.81-.36-.2-.23-.24-.48-.24-.9v-2.54h.67v2.35c0,.29,0,.44.11.58.1.15.28.22.48.22.36,0,.69-.24,1.06-.74v-2.42h.68Z"/>
        <path class="cls-13" d="M299.22,414.81v-3.71h.67l-.04.69h.04c.3-.5.76-.78,1.27-.78.35,0,.62.12.82.36.19.23.24.48.24.9v2.54h-.68v-2.35c0-.29-.01-.44-.1-.58-.11-.16-.29-.22-.48-.22-.36,0-.69.25-1.06.73v2.43h-.67Z"/>
        <path class="cls-13" d="M306.58,414.81c-.34.06-.67.08-.98.08-.54,0-.92-.1-1.12-.29-.25-.23-.29-.57-.29-1.12v-1.79h-.93v-.5h.93v-.8h.67v.8h1.65v.5h-1.65v1.91c0,.23.01.38.04.44.02.06.06.11.12.16.19.15.46.2.74.2s.56-.04.83-.1v.52Z"/>
        <path class="cls-13" d="M310.79,414.67c-.12.04-.2.06-.27.08-.34.11-.68.15-1.02.15-.7,0-1.2-.18-1.52-.54s-.47-.81-.47-1.36.16-1.01.48-1.4c.32-.38.75-.58,1.28-.58.46,0,.81.14,1.08.41.27.27.41.76.41,1.48v.22h-2.54c.03.48.17.81.43.99.26.18.57.27.93.27s.76-.08,1.19-.26v.53ZM310.05,412.63v-.1c0-.72-.36-1.01-.83-1.01-.53,0-.9.4-.96,1.11h1.79Z"/>
        <path class="cls-13" d="M312.31,414.81v-3.71h.68l-.04.69h.04c.31-.47.71-.78,1.38-.78.2,0,.43.03.69.08v1.06h-.5v-.53c-.11-.02-.2-.04-.29-.04-.46,0-.88.27-1.27.81v2.42h-.68Z"/>
        <path class="cls-13" d="M319.99,412.66v-.5h3.63v.5h-3.63ZM319.99,413.84v-.5h3.63v.5h-3.63Z"/>
        <path class="cls-1" d="M332.99,414.81v-.5h1.35v-3.94l-1.35.3v-.41l2.02-.64v4.69h1.35v.5h-3.38Z"/>
      </g>
      <g>
        <polygon class="cls-18" points="405.77 505.67 450.81 505.67 457.17 512.03 457.17 526.35 405.77 526.35 405.77 505.67"/>
        <polygon class="cls-16" points="457.17 512.03 450.81 512.03 450.81 505.67 457.17 512.03"/>
      </g>
      <g>
        <path class="cls-13" d="M414.12,518.17v-1.56h-1.56v-.5h1.56v-1.56h.5v1.56h1.56v.5h-1.56v1.56h-.5Z"/>
        <path class="cls-13" d="M418.34,518.17v-1.56h-1.56v-.5h1.56v-1.56h.5v1.56h1.56v.5h-1.56v1.56h-.5Z"/>
        <path class="cls-13" d="M424.48,518.05c-.4.13-.8.2-1.2.2-1.35,0-2.02-.76-2.02-1.94,0-.58.17-1.05.5-1.41.34-.36.82-.53,1.45-.53.39,0,.79.06,1.19.17v.57c-.44-.16-.81-.24-1.13-.24-.82,0-1.3.56-1.3,1.44s.53,1.44,1.39,1.44c.33,0,.69-.08,1.11-.23v.53Z"/>
        <path class="cls-13" d="M425.74,517.71c-.3-.36-.46-.83-.46-1.4s.15-1.04.46-1.4c.3-.36.74-.54,1.29-.54s1,.18,1.3.54c.3.36.46.82.46,1.4s-.15,1.04-.46,1.4c-.3.36-.74.54-1.3.54s-.99-.18-1.29-.54ZM428.07,516.31c0-.9-.39-1.44-1.04-1.44s-1.03.54-1.03,1.44.38,1.44,1.03,1.44,1.04-.54,1.04-1.44Z"/>
        <path class="cls-13" d="M432.74,514.45v3.71h-.68l.04-.7h-.04c-.3.51-.76.78-1.27.78-.35,0-.62-.12-.81-.36-.2-.23-.24-.48-.24-.9v-2.54h.67v2.35c0,.29,0,.44.11.58.1.15.28.22.48.22.36,0,.69-.24,1.06-.74v-2.42h.68Z"/>
        <path class="cls-13" d="M433.99,518.17v-3.71h.67l-.04.69h.04c.3-.5.76-.78,1.27-.78.35,0,.62.12.82.36.19.23.24.48.24.9v2.54h-.68v-2.35c0-.29-.01-.44-.1-.58-.11-.16-.29-.22-.48-.22-.36,0-.69.25-1.06.73v2.43h-.67Z"/>
        <path class="cls-13" d="M441.35,518.17c-.34.06-.67.08-.98.08-.54,0-.92-.1-1.12-.29-.25-.23-.29-.57-.29-1.12v-1.79h-.93v-.5h.93v-.8h.67v.8h1.65v.5h-1.65v1.91c0,.23.01.38.03.44.02.06.06.11.12.16.19.15.46.2.74.2s.56-.04.83-.1v.52Z"/>
        <path class="cls-13" d="M445.56,518.02c-.12.04-.2.06-.27.08-.34.11-.68.15-1.02.15-.7,0-1.2-.18-1.52-.54s-.47-.81-.47-1.36.16-1.01.48-1.4c.32-.38.75-.58,1.28-.58.46,0,.81.14,1.08.41s.41.76.41,1.48v.22h-2.54c.03.48.17.81.43.99.26.18.57.27.93.27s.76-.08,1.19-.26v.53ZM444.82,515.98v-.1c0-.72-.36-1.01-.83-1.01-.53,0-.9.4-.96,1.11h1.79Z"/>
        <path class="cls-13" d="M447.08,518.17v-3.71h.68l-.04.69h.04c.31-.47.71-.78,1.38-.78.2,0,.43.03.69.08v1.06h-.5v-.53c-.11-.02-.2-.04-.29-.04-.46,0-.88.27-1.28.81v2.42h-.68Z"/>
      </g>
      <g>
        <g>
          <g>
            <path class="cls-14" d="M284.2,480.36c0-6.9,5.6-12.5,12.5-12.5h44.29c1.57,0,3.07.3,4.46.83l2.27-2.27c-2.04-.99-4.32-1.56-6.74-1.56h-44.29c-8.55,0-15.5,6.95-15.5,15.5,0,6.13,3.59,11.43,8.76,13.94l2.27-2.27c-4.7-1.8-8.04-6.34-8.04-11.66Z"/>
            <path class="cls-20" d="M347.73,466.42l-2.27,2.27c4.7,1.8,8.04,6.34,8.04,11.67,0,6.9-5.6,12.5-12.5,12.5h-44.29c-1.57,0-3.07-.3-4.46-.84l-2.27,2.27c2.04.99,4.32,1.56,6.74,1.56h44.29c8.55,0,15.5-6.95,15.5-15.5,0-6.13-3.59-11.43-8.76-13.94Z"/>
          </g>
          <g>
            <path class="cls-15" d="M347.73,466.42c-.65-.32-1.33-.57-2.03-.8l-2.45,2.45c.76.14,1.5.35,2.2.62.66.25,1.3.57,1.9.93l2.17-2.17c-.58-.38-1.18-.73-1.8-1.03Z"/>
            <path class="cls-11" d="M289.97,494.3c.65.32,1.33.57,2.03.8l2.45-2.45c-.76-.14-1.5-.35-2.2-.62-.66-.25-1.3-.57-1.9-.93l-2.17,2.17c.58.38,1.18.73,1.8,1.03Z"/>
          </g>
        </g>
        <path class="cls-12" d="M296.7,492.86c-6.9,0-12.5-5.6-12.5-12.5s5.6-12.5,12.5-12.5h44.29c6.9,0,12.5,5.6,12.5,12.5s-5.6,12.5-12.5,12.5h-44.29Z"/>
      </g>
      <g>
        <path class="cls-13" d="M302.87,473.35c.21.04.54.05.61.05h.82c.7,0,1.21.14,1.58.43.67.54.88,1.56.88,2.29,0,1.02-.43,2.61-2.46,2.61l-.86-.02c-.18,0-.34,0-.56.02.06-.19.09-.44.09-.78v-3.81c0-.26-.02-.62-.09-.79ZM303.51,478.28h.5c.64,0,1.18,0,1.63-.48.31-.33.56-.86.56-1.7s-.26-1.51-.59-1.84c-.48-.46-1.17-.46-1.53-.46-.16,0-.27,0-.58.02v4.45Z"/>
        <path class="cls-13" d="M308.19,477.55c0,1.07.06,1.08.08,1.18h-.65c.03-.11.08-.15.08-1.18v-.86c0-.29,0-1.01-.02-1.17-.02-.15-.04-.19-.07-.31l.58-.25v2.59ZM307.95,473.33c.18,0,.33.14.33.31s-.14.31-.33.31-.32-.14-.32-.31.14-.31.32-.31Z"/>
        <path class="cls-13" d="M310.43,474.94c.36,0,.7.1.9.22.06.04.06.06.06.11,0,.13-.04.17-.18.46-.2-.29-.52-.42-.85-.42-.42,0-.65.26-.65.55,0,.31.19.44,1.06.9.42.22.71.5.71.99,0,.52-.4,1.03-1.26,1.03-.64,0-1.12-.25-1.12-.42,0-.06.02-.06.21-.46.18.39.61.5.9.5.49,0,.81-.26.81-.6,0-.39-.36-.56-.8-.81-.58-.33-.96-.54-.96-1.12s.46-.94,1.17-.94Z"/>
        <path class="cls-13" d="M313.8,474.94c.82,0,1.5.62,1.5,1.9,0,1.47-.87,1.95-1.58,1.95-.32,0-.62-.08-.86-.26v.65c0,.84.04.9.09,1.04h-.66c.06-.15.09-.4.09-1.07v-2.43c0-.62,0-1.1-.03-1.25-.02-.12-.04-.17-.06-.26l.55-.25.03.33c.26-.24.56-.35.95-.35ZM312.85,478.01c.23.25.51.37.84.37.19,0,.45-.05.66-.25.23-.22.42-.54.42-1.31,0-.87-.3-1.46-1.04-1.46-.33,0-.66.15-.89.4v2.25Z"/>
        <path class="cls-13" d="M316.75,477.55c0,1.06.06,1.06.09,1.18h-.65c.03-.1.09-.11.09-1.18v-2.75c0-.38,0-.92-.02-1.11-.02-.26-.06-.33-.08-.41l.57-.26v4.53Z"/>
        <path class="cls-13" d="M318.92,474.94c.72,0,1.07.28,1.07.91v1.97c0,.49.14.59.28.71-.23.18-.32.26-.39.26-.06,0-.18-.12-.28-.39-.25.26-.59.39-.94.39-.59,0-.94-.39-.94-.95,0-.99,1.05-1.2,1.81-1.25v-.65c0-.34-.07-.59-.66-.59-.42,0-.75.17-.98.44l-.1-.3s0-.05,0-.07c0-.22.51-.49,1.14-.49ZM318.53,477.23c-.22.14-.35.31-.35.58,0,.33.17.57.58.57.12,0,.29-.03.44-.12.18-.1.34-.24.34-.56v-.71c-.42.02-.72.06-1,.24Z"/>
        <path class="cls-13" d="M321.2,475h0c.03.35.23.79.31.98l.77,1.86c.72-1.29.93-2.1,1.02-2.85h.54c-.17.98-.8,2.41-1.85,4.26-.26.46-.33.6-.54.89-.07.1-.22.07-.32.07h-.34c.48-.58.87-1.24,1.24-1.91l-1.03-2.37c-.17-.38-.29-.65-.51-.94h.71Z"/>
        <path class="cls-13" d="M327.03,475h.7c.07,0,.22-.02.34-.05-.06.33-.07.35-.11.42-.03.05-.08.06-.16.06h-.77v2.37c0,.45.12.62.41.62.26,0,.49-.14.71-.38-.02.19-.05.44-.08.52,0,.02-.28.24-.74.24-.62,0-.78-.38-.78-.91v-2.45h-.38v-.46c.24.03.22.03.38.03v-.86l.49-.25v1.1Z"/>
        <path class="cls-13" d="M329.29,475.32c.34-.28.7-.38,1.17-.38.82,0,1.08.38,1.11.68,0,.08,0,.29,0,.34v1.74c0,.86.04.88.09,1.03h-.65c.03-.1.09-.11.09-1.18v-1.53c0-.09,0-.29-.06-.42-.09-.15-.29-.26-.59-.26-.46,0-.85.17-1.16.43v1.77c0,1.06.06,1.07.09,1.18h-.66c.03-.1.09-.11.09-1.18v-2.76c0-1.23-.02-1.3-.1-1.53l.59-.25v2.29Z"/>
        <path class="cls-13" d="M333.93,474.94c.86,0,1.17.68,1.26,1.42l-2.17.7c.06.79.39,1.32,1.04,1.32.38,0,.71-.18.94-.5l.26.31c-.28.39-.76.6-1.23.6-1,0-1.56-.85-1.56-1.95,0-.85.39-1.9,1.45-1.9ZM333.03,476.67l1.62-.53c-.1-.43-.29-.78-.73-.78s-.87.44-.9,1.31Z"/>
        <path class="cls-13" d="M300.89,484.94c.42,0,.74.12.92.26.08.06.12.11.12.19,0,.03,0,.07-.02.1l-.17.34c-.22-.3-.51-.49-.91-.49-.58,0-1.08.46-1.08,1.46,0,.87.32,1.56,1.12,1.56.43,0,.74-.22.99-.45l-.02.46c0,.22-.47.41-.98.41-1.13,0-1.62-.91-1.62-1.91,0-1.1.54-1.94,1.65-1.94Z"/>
        <path class="cls-13" d="M302.66,485.56c.25-.38.69-.62,1.27-.62.78,0,1.23.39,1.46.97.11.3.17.64.17,1.01,0,1.23-.71,1.88-1.62,1.88-.99,0-1.62-.74-1.62-1.87,0-.53.1-.99.35-1.37ZM303.14,485.71c-.2.28-.3.66-.3,1.17,0,.79.26,1.5,1.1,1.5s1.1-.71,1.1-1.5c0-1-.39-1.52-1.1-1.52-.31,0-.62.11-.78.35Z"/>
        <path class="cls-13" d="M306.89,487.63c0,.16,0,.36.08.49.08.14.27.26.57.26.33,0,.74-.1,1.15-.42v-1.81c0-.85-.03-.92-.1-1.14h.69c-.06.22-.1.29-.1,1.17v1.74c0,.22.02.48.08.67l-.51.22-.05-.35c-.41.25-.75.35-1.2.35-.86,0-1.09-.4-1.09-1.06v-1.02c0-.27,0-1.02-.02-1.11-.02-.25-.05-.28-.09-.41l.59-.25v2.69Z"/>
        <path class="cls-13" d="M312.01,484.94c.93,0,1.1.46,1.1.98v1.63c0,1.06.06,1.06.09,1.18h-.66c.03-.1.09-.11.09-1.18v-1.56c0-.33-.1-.64-.64-.64-.42,0-.86.17-1.16.45v1.75c0,1.06.06,1.06.09,1.18h-.66c.03-.1.09-.11.09-1.18v-.83c0-.44,0-.62,0-.82,0-.46-.04-.52-.09-.69l.55-.25.03.37c.36-.26.75-.39,1.19-.39Z"/>
        <path class="cls-13" d="M314.84,485h.7c.07,0,.22-.02.34-.05-.06.33-.07.35-.11.42-.03.05-.08.06-.16.06h-.77v2.37c0,.45.12.62.41.62.26,0,.49-.14.71-.38-.02.19-.05.44-.08.52,0,.02-.28.24-.74.24-.62,0-.78-.38-.78-.91v-2.45h-.38v-.46c.24.03.22.03.38.03v-.86l.49-.25v1.1Z"/>
        <path class="cls-13" d="M317.54,484.94c.86,0,1.17.68,1.26,1.42l-2.17.7c.06.79.39,1.32,1.04,1.32.38,0,.71-.18.94-.5l.26.31c-.28.39-.76.6-1.23.6-1,0-1.56-.85-1.56-1.95,0-.85.39-1.9,1.45-1.9ZM316.64,486.67l1.62-.53c-.1-.43-.29-.78-.73-.78s-.87.44-.9,1.31Z"/>
        <path class="cls-13" d="M320.99,484.94c.2,0,.26.05.26.14,0,.06,0,.06-.11.41-.08-.03-.12-.05-.22-.05-.28,0-.54.11-.74.34v1.77c0,1.07.06,1.06.09,1.18h-.66c.03-.1.09-.11.09-1.18v-1c0-1.12-.05-1.2-.1-1.34l.54-.25.03.36c.25-.23.44-.38.82-.38Z"/>
        <path class="cls-13" d="M323.93,485c.04.25.1.42.2.67l.89,2.21.75-1.97c.16-.41.24-.6.24-.85v-.06h.7c-.25.32-.38.66-.46.87l-1.22,2.9h-.11l-1.15-2.78c-.13-.3-.32-.73-.5-.99h.68Z"/>
        <path class="cls-13" d="M328.2,484.94c.72,0,1.07.28,1.07.91v1.97c0,.49.14.59.28.71-.23.18-.32.26-.39.26-.06,0-.18-.12-.28-.39-.25.26-.59.39-.94.39-.59,0-.94-.39-.94-.95,0-.99,1.06-1.2,1.82-1.25v-.65c0-.34-.07-.59-.66-.59-.42,0-.75.17-.98.44l-.1-.3s0-.05,0-.07c0-.22.51-.49,1.14-.49ZM327.81,487.23c-.22.14-.35.31-.35.58,0,.33.17.57.58.57.12,0,.29-.03.44-.12.18-.1.34-.24.34-.56v-.71c-.42.02-.72.06-1,.24Z"/>
        <path class="cls-13" d="M331.01,487.55c0,1.06.06,1.06.09,1.18h-.65c.03-.1.09-.11.09-1.18v-2.75c0-.38,0-.92-.02-1.11-.02-.26-.06-.33-.08-.41l.57-.26v4.53Z"/>
        <path class="cls-13" d="M332.65,487.63c0,.16,0,.36.08.49.08.14.27.26.57.26.33,0,.74-.1,1.15-.42v-1.81c0-.85-.03-.92-.1-1.14h.69c-.06.22-.1.29-.1,1.17v1.74c0,.22.02.48.08.67l-.51.22-.05-.35c-.41.25-.75.35-1.2.35-.86,0-1.09-.4-1.09-1.06v-1.02c0-.27,0-1.02-.02-1.11-.02-.25-.05-.28-.09-.41l.59-.25v2.69Z"/>
        <path class="cls-13" d="M337.24,484.94c.86,0,1.17.68,1.26,1.42l-2.17.7c.06.79.39,1.32,1.04,1.32.38,0,.71-.18.94-.5l.26.31c-.28.39-.76.6-1.23.6-1,0-1.56-.85-1.56-1.95,0-.85.39-1.9,1.45-1.9ZM336.33,486.67l1.62-.53c-.1-.43-.29-.78-.73-.78s-.87.44-.9,1.31Z"/>
      </g>
      <g>
        <g>
          <g>
            <path class="cls-14" d="M165.1,412.59c0-6.9,5.6-12.5,12.5-12.5h44.84c1.57,0,3.07.3,4.46.83l2.27-2.27c-2.04-.99-4.32-1.56-6.74-1.56h-44.84c-8.55,0-15.5,6.95-15.5,15.5,0,6.13,3.59,11.43,8.76,13.94l2.27-2.27c-4.7-1.8-8.04-6.34-8.04-11.66Z"/>
            <path class="cls-20" d="M229.18,398.65l-2.27,2.27c4.7,1.8,8.04,6.34,8.04,11.67,0,6.9-5.6,12.5-12.5,12.5h-44.84c-1.57,0-3.07-.3-4.46-.84l-2.27,2.27c2.04.99,4.32,1.56,6.74,1.56h44.84c8.55,0,15.5-6.95,15.5-15.5,0-6.13-3.59-11.43-8.76-13.94Z"/>
          </g>
          <g>
            <path class="cls-10" d="M229.18,398.65c-.65-.32-1.33-.57-2.03-.8l-2.45,2.45c.76.14,1.5.35,2.2.62.66.25,1.3.57,1.9.93l2.17-2.17c-.58-.38-1.18-.73-1.8-1.03Z"/>
            <path class="cls-9" d="M170.86,426.53c.65.32,1.33.57,2.03.8l2.45-2.45c-.76-.14-1.5-.35-2.2-.62-.66-.25-1.3-.57-1.9-.93l-2.17,2.17c.58.38,1.18.73,1.8,1.03Z"/>
          </g>
        </g>
        <path class="cls-12" d="M177.6,425.09c-6.9,0-12.5-5.6-12.5-12.5s5.6-12.5,12.5-12.5h44.84c6.9,0,12.5,5.6,12.5,12.5s-5.6,12.5-12.5,12.5h-44.84Z"/>
      </g>
      <g>
        <path class="cls-13" d="M189.25,405.63c-.03.1-.09.25-.09.77v3.82c0,.31.02.56.09.74h-.72c.02-.06.09-.23.09-.78v-3.76c0-.26-.02-.62-.09-.79h.72Z"/>
        <path class="cls-13" d="M192.19,407.17c.93,0,1.1.46,1.1.98v1.63c0,1.06.06,1.06.09,1.18h-.66c.03-.1.09-.11.09-1.18v-1.56c0-.33-.1-.64-.64-.64-.42,0-.86.17-1.16.45v1.75c0,1.06.06,1.06.09,1.18h-.66c.03-.1.09-.11.09-1.18v-.83c0-.44,0-.62,0-.82,0-.46-.04-.52-.09-.69l.55-.25.03.37c.36-.26.75-.39,1.19-.39Z"/>
        <path class="cls-13" d="M194.99,409.78c0,1.07.06,1.08.08,1.18h-.65c.03-.11.08-.15.08-1.18v-.86c0-.29,0-1.01-.02-1.17-.02-.15-.04-.19-.07-.31l.58-.25v2.59ZM194.75,405.56c.18,0,.33.14.33.31s-.14.31-.33.31-.32-.14-.32-.31.14-.31.32-.31Z"/>
        <path class="cls-13" d="M196.72,407.23h.7c.07,0,.22-.02.34-.05-.06.33-.07.35-.11.42-.03.05-.08.06-.16.06h-.77v2.37c0,.45.12.62.41.62.26,0,.49-.14.71-.38-.02.19-.05.44-.08.52,0,.02-.28.24-.74.24-.62,0-.78-.38-.78-.91v-2.45h-.38v-.46c.24.03.22.03.38.03v-.86l.49-.25v1.1Z"/>
        <path class="cls-13" d="M198.98,409.78c0,1.07.06,1.08.08,1.18h-.65c.03-.11.08-.15.08-1.18v-.86c0-.29,0-1.01-.02-1.17-.02-.15-.04-.19-.07-.31l.58-.25v2.59ZM198.75,405.56c.18,0,.33.14.33.31s-.14.31-.33.31-.32-.14-.32-.31.14-.31.32-.31Z"/>
        <path class="cls-13" d="M201.15,407.17c.72,0,1.07.28,1.07.91v1.97c0,.49.14.59.28.71-.23.18-.32.26-.39.26-.06,0-.18-.12-.28-.39-.25.26-.59.39-.94.39-.59,0-.94-.39-.94-.95,0-.99,1.06-1.2,1.81-1.25v-.65c0-.34-.07-.59-.66-.59-.42,0-.75.17-.98.44l-.1-.3s0-.05,0-.07c0-.22.51-.49,1.14-.49ZM200.75,409.46c-.22.14-.35.31-.35.58,0,.33.17.57.58.57.12,0,.29-.03.44-.12.18-.1.34-.24.34-.56v-.71c-.42.02-.72.06-1,.24Z"/>
        <path class="cls-13" d="M203.96,409.78c0,1.06.06,1.06.09,1.18h-.65c.03-.1.09-.11.09-1.18v-2.75c0-.38,0-.92-.02-1.11-.02-.26-.06-.33-.08-.41l.57-.26v4.53Z"/>
        <path class="cls-13" d="M205.68,409.78c0,1.07.06,1.08.08,1.18h-.65c.03-.11.08-.15.08-1.18v-.86c0-.29,0-1.01-.02-1.17-.02-.15-.04-.19-.07-.31l.58-.25v2.59ZM205.45,405.56c.18,0,.33.14.33.31s-.14.31-.33.31-.32-.14-.32-.31.14-.31.32-.31Z"/>
        <path class="cls-13" d="M209.66,407.23l-2.39,3.37c.1,0,.26-.02.3-.02l.91.02c.4,0,.68-.02.88-.06.12-.02.15-.03.3-.1-.1.23-.14.34-.18.42-.05.09-.16.09-.32.09h-2.68l2.45-3.37c-.12,0-.24.02-.36.02h-.6c-.88,0-1.07.02-1.3.1.03-.14.06-.25.07-.32.02-.11.06-.15.12-.15h2.8Z"/>
        <path class="cls-13" d="M211.61,407.17c.86,0,1.17.68,1.26,1.42l-2.17.7c.06.79.39,1.32,1.04,1.32.38,0,.71-.18.94-.5l.26.31c-.28.39-.76.6-1.23.6-1,0-1.56-.85-1.56-1.95,0-.85.39-1.9,1.45-1.9ZM210.71,408.9l1.62-.53c-.1-.43-.29-.78-.73-.78s-.87.44-.9,1.31Z"/>
        <path class="cls-13" d="M179.67,417.17c.42,0,.74.12.92.26.08.06.12.11.12.19,0,.03,0,.07-.02.1l-.17.34c-.22-.3-.51-.49-.91-.49-.58,0-1.08.46-1.08,1.46,0,.87.32,1.56,1.12,1.56.43,0,.74-.22.99-.45l-.02.46c0,.22-.47.41-.98.41-1.13,0-1.62-.91-1.62-1.91,0-1.1.54-1.94,1.65-1.94Z"/>
        <path class="cls-13" d="M181.45,417.79c.25-.38.69-.62,1.27-.62.78,0,1.23.39,1.46.97.11.3.17.64.17,1.01,0,1.23-.71,1.88-1.62,1.88-.99,0-1.62-.74-1.62-1.87,0-.53.1-.99.35-1.37ZM181.93,417.94c-.2.28-.3.66-.3,1.17,0,.79.26,1.5,1.1,1.5s1.1-.71,1.1-1.5c0-1-.39-1.52-1.1-1.52-.31,0-.62.11-.78.35Z"/>
        <path class="cls-13" d="M186.94,417.17c.93,0,1.1.46,1.1.98v1.63c0,1.06.06,1.06.09,1.18h-.66c.03-.1.09-.11.09-1.18v-1.56c0-.33-.1-.64-.64-.64-.42,0-.86.17-1.16.45v1.75c0,1.06.06,1.06.09,1.18h-.66c.03-.1.09-.11.09-1.18v-.83c0-.44,0-.62,0-.82,0-.46-.04-.52-.09-.69l.55-.25.03.37c.36-.26.75-.39,1.19-.39Z"/>
        <path class="cls-13" d="M189.77,417.23h.7c.07,0,.22-.02.34-.05-.06.33-.07.35-.11.42-.03.05-.08.06-.16.06h-.77v2.37c0,.45.12.62.41.62.26,0,.49-.14.71-.38-.02.19-.05.44-.08.52,0,.02-.28.24-.74.24-.62,0-.78-.38-.78-.91v-2.45h-.38v-.46c.24.03.22.03.38.03v-.86l.49-.25v1.1Z"/>
        <path class="cls-13" d="M192.84,417.17c.2,0,.26.05.26.14,0,.06,0,.06-.11.41-.08-.03-.12-.05-.22-.05-.28,0-.54.11-.74.34v1.77c0,1.07.06,1.06.09,1.18h-.66c.03-.1.09-.11.09-1.18v-1c0-1.12-.05-1.2-.1-1.34l.54-.25.03.36c.25-.23.44-.38.82-.38Z"/>
        <path class="cls-13" d="M193.72,417.79c.25-.38.69-.62,1.27-.62.78,0,1.23.39,1.46.97.11.3.17.64.17,1.01,0,1.23-.71,1.88-1.62,1.88-.99,0-1.62-.74-1.62-1.87,0-.53.1-.99.35-1.37ZM194.2,417.94c-.2.28-.3.66-.3,1.17,0,.79.26,1.5,1.1,1.5s1.1-.71,1.1-1.5c0-1-.39-1.52-1.1-1.52-.31,0-.62.11-.78.35Z"/>
        <path class="cls-13" d="M198.01,419.78c0,1.06.06,1.06.09,1.18h-.65c.03-.1.09-.11.09-1.18v-2.75c0-.38,0-.92-.02-1.11-.02-.26-.06-.33-.08-.41l.57-.26v4.53Z"/>
        <path class="cls-13" d="M201.34,417.23c.04.25.1.42.2.67l.89,2.21.75-1.97c.16-.41.24-.6.24-.85v-.06h.7c-.25.32-.38.66-.46.87l-1.22,2.9h-.11l-1.15-2.78c-.13-.3-.32-.73-.5-.99h.68Z"/>
        <path class="cls-13" d="M205.61,417.17c.72,0,1.07.28,1.07.91v1.97c0,.49.14.59.28.71-.23.18-.32.26-.39.26-.06,0-.18-.12-.28-.39-.25.26-.59.39-.94.39-.59,0-.94-.39-.94-.95,0-.99,1.06-1.2,1.81-1.25v-.65c0-.34-.07-.59-.66-.59-.42,0-.75.17-.98.44l-.1-.3s0-.05,0-.07c0-.22.51-.49,1.14-.49ZM205.22,419.46c-.22.14-.35.31-.35.58,0,.33.17.57.58.57.12,0,.29-.03.44-.12.18-.1.34-.24.34-.56v-.71c-.42.02-.72.06-1,.24Z"/>
        <path class="cls-13" d="M209.25,417.17c.2,0,.26.05.26.14,0,.06,0,.06-.11.41-.08-.03-.12-.05-.22-.05-.28,0-.54.11-.74.34v1.77c0,1.07.06,1.06.09,1.18h-.66c.03-.1.09-.11.09-1.18v-1c0-1.12-.05-1.2-.1-1.34l.54-.25.03.36c.25-.23.44-.38.82-.38Z"/>
        <path class="cls-13" d="M210.58,419.78c0,1.07.06,1.08.08,1.18h-.65c.03-.11.08-.15.08-1.18v-.86c0-.29,0-1.01-.02-1.17-.02-.15-.04-.19-.07-.31l.58-.25v2.59ZM210.35,415.56c.18,0,.33.14.33.31s-.14.31-.33.31-.32-.14-.32-.31.14-.31.32-.31Z"/>
        <path class="cls-13" d="M212.75,417.17c.72,0,1.07.28,1.07.91v1.97c0,.49.14.59.28.71-.23.18-.32.26-.39.26-.06,0-.18-.12-.28-.39-.25.26-.59.39-.94.39-.59,0-.94-.39-.94-.95,0-.99,1.06-1.2,1.81-1.25v-.65c0-.34-.07-.59-.66-.59-.42,0-.75.17-.98.44l-.1-.3s0-.05,0-.07c0-.22.51-.49,1.14-.49ZM212.36,419.46c-.22.14-.35.31-.35.58,0,.33.17.57.58.57.12,0,.29-.03.44-.12.18-.1.34-.24.34-.56v-.71c-.42.02-.72.06-1,.24Z"/>
        <path class="cls-13" d="M215.53,417.44c.29-.19.56-.27.9-.27.7,0,1.54.46,1.54,1.93,0,1.57-.98,1.92-1.56,1.92-.34,0-.64-.09-.9-.29l-.47.25v-3.97c0-.41,0-.88-.02-1.11,0-.16-.06-.32-.08-.41l.58-.25v2.19ZM215.53,420.22c.2.26.5.39.86.39.78,0,1.06-.69,1.06-1.5,0-.59-.14-.98-.34-1.2-.22-.26-.56-.32-.75-.32-.31,0-.58.14-.82.38v2.25Z"/>
        <path class="cls-13" d="M219.42,419.78c0,1.06.06,1.06.09,1.18h-.65c.03-.1.09-.11.09-1.18v-2.75c0-.38,0-.92-.02-1.11-.02-.26-.06-.33-.08-.41l.57-.26v4.53Z"/>
        <path class="cls-13" d="M221.79,417.17c.86,0,1.17.68,1.26,1.42l-2.17.7c.06.79.39,1.32,1.04,1.32.38,0,.71-.18.94-.5l.26.31c-.28.39-.76.6-1.23.6-1,0-1.56-.85-1.56-1.95,0-.85.39-1.9,1.45-1.9ZM220.89,418.9l1.62-.53c-.1-.43-.29-.78-.73-.78s-.87.44-.9,1.31Z"/>
      </g>
      <g>
        <g>
          <g>
            <path class="cls-14" d="M397.6,480.36c0-6.9,5.6-12.5,12.5-12.5h44.29c1.57,0,3.07.3,4.46.83l2.27-2.27c-2.04-.99-4.32-1.56-6.74-1.56h-44.29c-8.55,0-15.5,6.95-15.5,15.5,0,6.13,3.59,11.43,8.76,13.94l2.27-2.27c-4.7-1.8-8.04-6.34-8.04-11.66Z"/>
            <path class="cls-20" d="M461.13,466.42l-2.27,2.27c4.7,1.8,8.04,6.34,8.04,11.67,0,6.9-5.6,12.5-12.5,12.5h-44.29c-1.57,0-3.07-.3-4.46-.84l-2.27,2.27c2.04.99,4.32,1.56,6.74,1.56h44.29c8.55,0,15.5-6.95,15.5-15.5,0-6.13-3.59-11.43-8.76-13.94Z"/>
          </g>
          <g>
            <path class="cls-7" d="M461.13,466.42c-.65-.32-1.33-.57-2.03-.8l-2.45,2.45c.76.14,1.5.35,2.2.62.66.25,1.3.57,1.9.93l2.17-2.17c-.58-.38-1.18-.73-1.8-1.03Z"/>
            <path class="cls-8" d="M403.37,494.3c.65.32,1.33.57,2.03.8l2.45-2.45c-.76-.14-1.5-.35-2.2-.62-.66-.25-1.3-.57-1.9-.93l-2.17,2.17c.58.38,1.18.73,1.8,1.03Z"/>
          </g>
        </g>
        <path class="cls-12" d="M410.1,492.86c-6.9,0-12.5-5.6-12.5-12.5s5.6-12.5,12.5-12.5h44.29c6.9,0,12.5,5.6,12.5,12.5s-5.6,12.5-12.5,12.5h-44.29Z"/>
      </g>
      <g>
        <path class="cls-13" d="M412.79,473.4c-.03.1-.09.25-.09.77v3.82c0,.31.02.56.09.74h-.72c.02-.06.09-.23.09-.78v-3.76c0-.26-.02-.62-.09-.79h.72Z"/>
        <path class="cls-13" d="M415.72,474.94c.93,0,1.09.46,1.09.98v1.63c0,1.06.06,1.06.09,1.18h-.66c.03-.1.09-.11.09-1.18v-1.56c0-.33-.1-.64-.64-.64-.42,0-.86.17-1.16.45v1.75c0,1.06.06,1.06.09,1.18h-.66c.03-.1.09-.11.09-1.18v-.83c0-.44,0-.62,0-.82,0-.46-.04-.52-.09-.69l.55-.25.03.37c.36-.26.75-.39,1.19-.39Z"/>
        <path class="cls-13" d="M419.38,474.94c.42,0,.74.12.92.26.08.06.12.11.12.19,0,.03,0,.07-.02.1l-.17.34c-.22-.3-.51-.49-.91-.49-.58,0-1.08.46-1.08,1.46,0,.87.32,1.56,1.12,1.56.43,0,.74-.22.99-.45l-.02.46c0,.22-.47.41-.98.41-1.13,0-1.62-.91-1.62-1.91,0-1.1.54-1.94,1.65-1.94Z"/>
        <path class="cls-13" d="M422.62,474.94c.2,0,.26.05.26.14,0,.06,0,.06-.11.41-.08-.03-.12-.05-.22-.05-.28,0-.54.11-.74.34v1.77c0,1.07.06,1.06.09,1.18h-.66c.03-.1.09-.11.09-1.18v-1c0-1.12-.05-1.2-.1-1.34l.54-.25.03.36c.25-.23.44-.38.82-.38Z"/>
        <path class="cls-13" d="M424.59,474.94c.86,0,1.17.68,1.26,1.42l-2.17.7c.06.79.39,1.32,1.04,1.32.38,0,.71-.18.94-.5l.26.31c-.28.39-.76.6-1.23.6-1,0-1.56-.85-1.56-1.95,0-.85.39-1.9,1.45-1.9ZM423.69,476.67l1.62-.53c-.1-.43-.29-.78-.73-.78s-.87.44-.9,1.31Z"/>
        <path class="cls-13" d="M428.27,474.94c.23,0,.5.05.7.18.1.06.17.14.22.25.33-.27.74-.42,1.14-.42.35,0,.77.11.94.44.1.18.1.46.1.66v1.52c0,1.06.06,1.06.09,1.18h-.66c.03-.1.09-.11.09-1.18v-1.43c0-.5-.07-.77-.6-.77-.4,0-.72.14-1,.41v1.79c0,1.06.06,1.06.09,1.18h-.66c.03-.1.09-.11.09-1.18v-1.48c0-.42-.11-.72-.62-.72-.43,0-.7.19-.97.41v1.79c0,1.07.06,1.08.08,1.18h-.64c.06-.14.08-.32.08-1.15v-1.11c0-.43,0-.69-.02-.86,0-.12-.02-.24-.08-.4l.54-.25.04.4c.3-.31.67-.42,1.06-.42Z"/>
        <path class="cls-13" d="M433.72,474.94c.86,0,1.17.68,1.26,1.42l-2.17.7c.06.79.39,1.32,1.04,1.32.38,0,.71-.18.94-.5l.26.31c-.28.39-.76.6-1.23.6-1,0-1.56-.85-1.56-1.95,0-.85.39-1.9,1.45-1.9ZM432.82,476.67l1.62-.53c-.1-.43-.29-.78-.73-.78s-.87.44-.9,1.31Z"/>
        <path class="cls-13" d="M437.54,474.94c.93,0,1.09.46,1.09.98v1.63c0,1.06.06,1.06.09,1.18h-.66c.03-.1.09-.11.09-1.18v-1.56c0-.33-.1-.64-.64-.64-.42,0-.86.17-1.16.45v1.75c0,1.06.06,1.06.09,1.18h-.66c.03-.1.09-.11.09-1.18v-.83c0-.44,0-.62,0-.82,0-.46-.04-.52-.09-.69l.55-.25.03.37c.36-.26.75-.39,1.19-.39Z"/>
        <path class="cls-13" d="M440.37,475h.7c.07,0,.22-.02.34-.05-.06.33-.07.35-.11.42-.03.05-.08.06-.16.06h-.77v2.37c0,.45.12.62.41.62.26,0,.49-.14.71-.38-.02.19-.05.44-.08.52,0,.02-.28.24-.74.24-.62,0-.78-.38-.78-.91v-2.45h-.38v-.46c.24.03.22.03.38.03v-.86l.49-.25v1.1Z"/>
        <path class="cls-13" d="M444.65,475h.7c.07,0,.22-.02.34-.05-.06.33-.07.35-.11.42-.03.05-.08.06-.16.06h-.77v2.37c0,.45.12.62.41.62.26,0,.49-.14.71-.38-.02.19-.05.44-.08.52,0,.02-.28.24-.74.24-.62,0-.78-.38-.78-.91v-2.45h-.38v-.46c.24.03.22.03.38.03v-.86l.49-.25v1.1Z"/>
        <path class="cls-13" d="M446.9,475.32c.34-.28.7-.38,1.17-.38.82,0,1.08.38,1.11.68,0,.08,0,.29,0,.34v1.74c0,.86.04.88.09,1.03h-.65c.03-.1.09-.11.09-1.18v-1.53c0-.09,0-.29-.06-.42-.09-.15-.29-.26-.59-.26-.46,0-.85.17-1.16.43v1.77c0,1.06.06,1.07.09,1.18h-.66c.03-.1.09-.11.09-1.18v-2.76c0-1.23-.02-1.3-.1-1.53l.59-.25v2.29Z"/>
        <path class="cls-13" d="M451.54,474.94c.86,0,1.17.68,1.26,1.42l-2.17.7c.06.79.39,1.32,1.04,1.32.38,0,.71-.18.94-.5l.26.31c-.28.39-.76.6-1.23.6-1,0-1.56-.85-1.56-1.95,0-.85.39-1.9,1.45-1.9ZM450.64,476.67l1.62-.53c-.1-.43-.29-.78-.73-.78s-.87.44-.9,1.31Z"/>
        <path class="cls-13" d="M411.4,484.94c.42,0,.74.12.92.26.08.06.12.11.12.19,0,.03,0,.07-.02.1l-.17.34c-.22-.3-.51-.49-.91-.49-.58,0-1.08.46-1.08,1.46,0,.87.32,1.56,1.12,1.56.43,0,.74-.22.99-.45l-.02.46c0,.22-.47.41-.98.41-1.13,0-1.62-.91-1.62-1.91,0-1.1.54-1.94,1.66-1.94Z"/>
        <path class="cls-13" d="M413.18,485.56c.25-.38.69-.62,1.27-.62.78,0,1.23.39,1.46.97.11.3.17.64.17,1.01,0,1.23-.71,1.88-1.62,1.88-.99,0-1.62-.74-1.62-1.87,0-.53.1-.99.35-1.37ZM413.66,485.71c-.2.28-.3.66-.3,1.17,0,.79.26,1.5,1.09,1.5s1.1-.71,1.1-1.5c0-1-.39-1.52-1.1-1.52-.31,0-.62.11-.78.35Z"/>
        <path class="cls-13" d="M418.68,484.94c.93,0,1.1.46,1.1.98v1.63c0,1.06.06,1.06.09,1.18h-.66c.03-.1.09-.11.09-1.18v-1.56c0-.33-.1-.64-.64-.64-.42,0-.86.17-1.16.45v1.75c0,1.06.06,1.06.09,1.18h-.66c.03-.1.09-.11.09-1.18v-.83c0-.44,0-.62,0-.82,0-.46-.04-.52-.09-.69l.55-.25.03.37c.36-.26.75-.39,1.19-.39Z"/>
        <path class="cls-13" d="M421.5,485h.7c.07,0,.22-.02.34-.05-.06.33-.07.35-.11.42-.03.05-.08.06-.16.06h-.77v2.37c0,.45.12.62.41.62.26,0,.49-.14.71-.38-.02.19-.05.44-.08.52,0,.02-.28.24-.74.24-.62,0-.78-.38-.78-.91v-2.45h-.38v-.46c.24.03.22.03.38.03v-.86l.49-.25v1.1Z"/>
        <path class="cls-13" d="M424.57,484.94c.2,0,.26.05.26.14,0,.06,0,.06-.11.41-.08-.03-.12-.05-.22-.05-.28,0-.54.11-.74.34v1.77c0,1.07.06,1.06.09,1.18h-.66c.03-.1.09-.11.09-1.18v-1c0-1.12-.05-1.2-.1-1.34l.54-.25.03.36c.25-.23.44-.38.82-.38Z"/>
        <path class="cls-13" d="M425.45,485.56c.25-.38.69-.62,1.27-.62.78,0,1.23.39,1.46.97.11.3.17.64.17,1.01,0,1.23-.71,1.88-1.62,1.88-.99,0-1.62-.74-1.62-1.87,0-.53.1-.99.35-1.37ZM425.93,485.71c-.2.28-.3.66-.3,1.17,0,.79.26,1.5,1.1,1.5s1.09-.71,1.09-1.5c0-1-.39-1.52-1.1-1.52-.31,0-.62.11-.78.35Z"/>
        <path class="cls-13" d="M429.75,487.55c0,1.06.06,1.06.09,1.18h-.65c.03-.1.09-.11.09-1.18v-2.75c0-.38,0-.92-.02-1.11-.02-.26-.06-.33-.08-.41l.57-.26v4.53Z"/>
        <path class="cls-13" d="M433.08,485c.04.25.1.42.2.67l.89,2.21.75-1.97c.16-.41.24-.6.24-.85v-.06h.7c-.25.32-.38.66-.46.87l-1.22,2.9h-.11l-1.15-2.78c-.13-.3-.32-.73-.5-.99h.68Z"/>
        <path class="cls-13" d="M437.35,484.94c.72,0,1.07.28,1.07.91v1.97c0,.49.14.59.28.71-.23.18-.32.26-.39.26-.06,0-.18-.12-.28-.39-.25.26-.59.39-.94.39-.59,0-.94-.39-.94-.95,0-.99,1.06-1.2,1.82-1.25v-.65c0-.34-.07-.59-.66-.59-.42,0-.75.17-.98.44l-.1-.3s0-.05,0-.07c0-.22.51-.49,1.14-.49ZM436.96,487.23c-.22.14-.35.31-.35.58,0,.33.17.57.58.57.12,0,.29-.03.44-.12.18-.1.34-.24.34-.56v-.71c-.42.02-.72.06-1,.24Z"/>
        <path class="cls-13" d="M440.99,484.94c.2,0,.26.05.26.14,0,.06,0,.06-.11.41-.08-.03-.12-.05-.22-.05-.28,0-.54.11-.74.34v1.77c0,1.07.06,1.06.09,1.18h-.66c.03-.1.09-.11.09-1.18v-1c0-1.12-.05-1.2-.1-1.34l.54-.25.03.36c.25-.23.44-.38.82-.38Z"/>
        <path class="cls-13" d="M442.32,487.55c0,1.07.06,1.08.08,1.18h-.65c.03-.11.08-.15.08-1.18v-.86c0-.29,0-1.01-.02-1.17-.02-.15-.04-.19-.07-.31l.58-.25v2.59ZM442.08,483.33c.18,0,.33.14.33.31s-.14.31-.33.31-.32-.14-.32-.31.14-.31.32-.31Z"/>
        <path class="cls-13" d="M444.48,484.94c.72,0,1.07.28,1.07.91v1.97c0,.49.14.59.28.71-.23.18-.32.26-.39.26-.06,0-.18-.12-.28-.39-.25.26-.59.39-.94.39-.59,0-.94-.39-.94-.95,0-.99,1.06-1.2,1.82-1.25v-.65c0-.34-.07-.59-.66-.59-.42,0-.75.17-.98.44l-.1-.3s0-.05,0-.07c0-.22.51-.49,1.14-.49ZM444.09,487.23c-.22.14-.35.31-.35.58,0,.33.17.57.58.57.12,0,.29-.03.44-.12.18-.1.34-.24.34-.56v-.71c-.42.02-.72.06-1,.24Z"/>
        <path class="cls-13" d="M447.26,485.21c.29-.19.56-.27.9-.27.7,0,1.54.46,1.54,1.93,0,1.57-.98,1.92-1.56,1.92-.34,0-.64-.09-.9-.29l-.47.25v-3.97c0-.41,0-.88-.02-1.11,0-.16-.06-.32-.08-.41l.58-.25v2.19ZM447.26,487.99c.2.26.5.39.86.39.78,0,1.06-.69,1.06-1.5,0-.59-.14-.98-.34-1.2-.22-.26-.56-.32-.75-.32-.31,0-.58.14-.82.38v2.25Z"/>
        <path class="cls-13" d="M451.16,487.55c0,1.06.06,1.06.09,1.18h-.65c.03-.1.09-.11.09-1.18v-2.75c0-.38,0-.92-.02-1.11-.02-.26-.06-.33-.08-.41l.57-.26v4.53Z"/>
        <path class="cls-13" d="M453.52,484.94c.86,0,1.17.68,1.26,1.42l-2.17.7c.06.79.39,1.32,1.04,1.32.38,0,.71-.18.94-.5l.26.31c-.28.39-.76.6-1.23.6-1,0-1.56-.85-1.56-1.95,0-.85.39-1.9,1.45-1.9ZM452.62,486.67l1.62-.53c-.1-.43-.29-.78-.73-.78s-.87.44-.9,1.31Z"/>
      </g>
    </g>
  </g>
</svg>